<svg width="16" height="16" viewBox="0 0 16 16" fill="none" xmlns="http://www.w3.org/2000/svg">
<path d="M16 0H0V16H16V0Z" fill="url(#paint0_linear_28_49)"/>
<path fill-rule="evenodd" clip-rule="evenodd" d="M13.8115 13.4515C13.8115 13.3179 13.7804 13.2004 13.7184 13.0989C13.6562 12.9973 13.5454 12.9025 13.386 12.8143C13.2266 12.7262 13.0145 12.6447 12.7497 12.5699C12.485 12.4951 12.1499 12.4203 11.7447 12.3455C11.2313 12.244 10.7626 12.1171 10.3384 11.9649C9.9142 11.8126 9.55086 11.6283 9.24824 11.4118C8.94562 11.1954 8.70923 10.9456 8.539 10.6625C8.36877 10.3793 8.28368 10.0534 8.28368 9.68476C8.28368 9.32677 8.37014 8.98489 8.54307 8.65895C8.71595 8.33301 8.96452 8.0472 9.28873 7.80142C9.61295 7.55565 10.0075 7.36065 10.4721 7.21639C10.9368 7.07213 11.461 7 12.0446 7C12.6552 7 13.2036 7.07082 13.6899 7.21237C14.1763 7.35397 14.5883 7.54901 14.9261 7.79741C15.2638 8.04589 15.5218 8.34105 15.7001 8.68297C15.8784 9.02493 15.9676 9.39628 15.9676 9.79697H13.7143C13.7143 9.46038 13.5765 9.17854 13.301 8.95145C13.0253 8.7244 12.6065 8.61088 12.0446 8.61088C11.5204 8.61088 11.1246 8.70436 10.8572 8.89133C10.5897 9.07837 10.4559 9.30808 10.4559 9.58058C10.4559 9.70882 10.483 9.82767 10.537 9.93721C10.591 10.0468 10.6869 10.1456 10.8247 10.2337C10.9625 10.3219 11.1503 10.402 11.388 10.4742C11.6258 10.5463 11.9284 10.6091 12.2958 10.6625C12.8254 10.748 13.3171 10.8575 13.771 10.9911C14.2249 11.1247 14.6167 11.297 14.9463 11.508C15.2759 11.7191 15.5339 11.9755 15.7204 12.2774C15.9068 12.5793 16 12.9385 16 13.3553C16 13.74 15.9068 14.094 15.7204 14.4172C15.5339 14.7404 15.2691 15.0196 14.9261 15.2547C14.5829 15.4897 14.1682 15.6728 13.6818 15.8036C13.1956 15.9345 12.6525 16 12.0527 16C11.3935 16 10.8112 15.9145 10.306 15.7435C9.80075 15.5726 9.37793 15.3495 9.03751 15.0744C8.69701 14.7992 8.43903 14.4867 8.26341 14.1367C8.08783 13.7868 8 13.4354 8 13.0828H10.1479C10.1641 13.3179 10.2289 13.5196 10.3425 13.6879C10.4559 13.8562 10.6018 13.9924 10.7802 14.0966C10.9584 14.2008 11.1624 14.2769 11.3921 14.325C11.6218 14.3731 11.8582 14.3972 12.1013 14.3972C12.6579 14.3972 13.082 14.309 13.3739 14.1327C13.6656 13.9563 13.8115 13.7293 13.8115 13.4515Z" fill="white"/>
<defs>
<linearGradient id="paint0_linear_28_49" x1="0" y1="0" x2="15.7511" y2="15.7511" gradientUnits="userSpaceOnUse">
<stop stop-color="#F8A840"/>
<stop offset="1" stop-color="#F7834D"/>
</linearGradient>
</defs>
</svg>
